<svg width="242" height="242" viewBox="0 0 242 242" fill="none" xmlns="http://www.w3.org/2000/svg">
<path fill-rule="evenodd" clip-rule="evenodd" d="M144.696 166.569C143.956 167.208 142.838 167.15 142.186 166.41C141.532 165.684 141.605 164.552 142.331 163.899C177.881 132.514 177.837 130.497 176.678 81.5535C176.531 75.2563 176.357 68.1901 176.241 60.1512C166.809 60.4267 157.407 59.8028 148.324 57.9165C138.921 55.9724 129.866 52.6922 121.479 47.7014C113.02 52.1708 104.242 55.435 95.2162 57.5388C86.3647 59.6142 77.2533 60.5425 67.9675 60.3832L67.9226 63.9669C67.7482 77.9405 67.561 91.9576 67.9675 105.786C67.9959 106.773 67.2259 107.586 66.2409 107.614C65.2672 107.644 64.441 106.874 64.4113 105.888C64.0048 92.0158 64.1938 77.9557 64.3683 63.9386L64.441 58.4969C64.4694 57.5251 65.297 56.7561 66.2693 56.7849C75.8604 57.1044 85.2625 56.204 94.4188 54.0714C103.444 51.9681 112.237 48.6448 120.698 44.0884C121.233 43.8129 121.917 43.7987 122.468 44.1466C130.724 49.2106 139.706 52.505 149.037 54.4344C158.408 56.3789 168.161 56.9452 177.926 56.5387H177.969C178.956 56.5387 179.754 57.3219 179.769 58.2941C179.885 67 180.073 74.6759 180.233 81.4666C181.422 132.006 181.465 134.081 144.696 166.569ZM132.913 105.83H112.832H112.701C110.146 105.858 107.826 106.918 106.143 108.601C104.431 110.313 103.371 112.678 103.371 115.29V134.69H141.373V114.274C141.373 111.953 140.416 109.834 138.892 108.311C137.382 106.802 135.307 105.858 133.014 105.83H132.913ZM124.905 85.5442H119.825C117.533 85.5442 115.443 86.4876 113.933 87.9963C112.426 89.505 111.482 91.5946 111.482 93.9021V102.26H112.832H132.913H133.059H133.247V93.9026C133.247 91.5951 132.319 89.5055 130.81 88.011C129.285 86.4876 127.197 85.5442 124.905 85.5442ZM119.825 81.9893H124.905C128.169 81.9893 131.158 83.3241 133.305 85.486C135.481 87.648 136.817 90.637 136.817 93.9026V102.913C138.558 103.523 140.111 104.509 141.401 105.786C143.593 107.977 144.943 110.981 144.943 114.274V136.475C144.943 137.447 144.13 138.26 143.158 138.26H101.586C100.601 138.26 99.8009 137.447 99.8009 136.475V115.29C99.8009 111.706 101.268 108.442 103.618 106.076C104.837 104.872 106.289 103.886 107.913 103.218V93.9026C107.913 90.6375 109.248 87.6484 111.409 85.486C113.587 83.3241 116.561 81.9893 119.825 81.9893ZM124.44 118.424C123.918 117.888 123.178 117.569 122.365 117.569C121.595 117.569 120.885 117.858 120.363 118.337L120.29 118.424C119.768 118.947 119.434 119.687 119.434 120.5C119.434 121.008 119.564 121.486 119.782 121.908C120 122.299 120.318 122.647 120.697 122.909C121.232 123.213 121.596 123.794 121.596 124.461V126.652H123.133V124.461C123.133 123.88 123.423 123.315 123.961 122.967C124.367 122.705 124.716 122.328 124.948 121.908C125.166 121.501 125.296 121.008 125.296 120.5C125.296 119.687 124.976 118.947 124.44 118.424ZM122.365 113.999C124.15 113.999 125.774 114.725 126.95 115.9C128.14 117.075 128.866 118.701 128.866 120.499C128.866 121.602 128.576 122.676 128.068 123.604C127.72 124.257 127.255 124.837 126.703 125.331V128.435C126.703 129.423 125.905 130.221 124.918 130.221H119.811C118.824 130.221 118.026 129.423 118.026 128.435V125.331C117.49 124.837 117.011 124.257 116.662 123.604C116.155 122.675 115.865 121.602 115.865 120.499C115.865 118.7 116.59 117.075 117.765 115.9L117.881 115.798C119.056 114.681 120.638 113.999 122.365 113.999ZM219.162 56.1761C220.149 56.1761 220.947 56.974 220.947 57.9604C220.947 58.9327 220.149 59.7447 219.162 59.7447H202.04C201.053 59.7447 200.255 58.9322 200.255 57.9604C200.255 56.9735 201.053 56.1761 202.04 56.1761H219.162ZM227.927 73.7188C228.913 73.7188 229.71 74.5313 229.71 75.5031C229.71 76.49 228.913 77.2878 227.927 77.2878H202.04C201.053 77.2878 200.255 76.49 200.255 75.5031C200.255 74.5308 201.053 73.7188 202.04 73.7188H227.927ZM219.162 91.2756C220.149 91.2756 220.947 92.0734 220.947 93.0603C220.947 94.0472 220.149 94.8451 219.162 94.8451H202.04C201.053 94.8451 200.255 94.0472 200.255 93.0603C200.255 92.0734 201.053 91.2756 202.04 91.2756H219.162ZM227.927 108.833C228.913 108.833 229.71 109.631 229.71 110.618C229.71 111.59 228.913 112.402 227.927 112.402H202.04C201.053 112.402 200.255 111.59 200.255 110.618C200.255 109.631 201.053 108.833 202.04 108.833H227.927ZM219.162 126.376C220.149 126.376 220.947 127.189 220.947 128.161C220.947 129.148 220.149 129.945 219.162 129.945H202.04C201.053 129.945 200.255 129.147 200.255 128.161C200.255 127.188 201.053 126.376 202.04 126.376H219.162ZM48.1164 205.065C47.1295 205.065 46.3317 204.266 46.3317 203.28C46.3317 202.294 47.1295 201.495 48.1164 201.495H172.613C173.6 201.495 174.398 202.294 174.398 203.28C174.398 204.266 173.6 205.065 172.613 205.065H48.1164ZM121.015 212.799C120.028 212.799 119.23 212.001 119.23 211.015C119.23 210.027 120.028 209.23 121.015 209.23H207.162C208.149 209.23 208.947 210.028 208.947 211.015C208.947 212.001 208.149 212.799 207.162 212.799H121.015ZM182.699 205.065C181.711 205.065 180.914 204.266 180.914 203.28C180.914 202.294 181.712 201.495 182.699 201.495H193.464C194.451 201.495 195.249 202.294 195.249 203.28C195.249 204.266 194.451 205.065 193.464 205.065H182.699ZM43.2112 212.494C42.2262 212.494 41.4265 211.696 41.4265 210.709C41.4265 209.723 42.2257 208.924 43.2112 208.924H84.0289C85.0158 208.924 85.8136 209.723 85.8136 210.709C85.8136 211.696 85.0158 212.494 84.0289 212.494H43.2112ZM22.8397 59.7447C21.8528 59.7447 21.055 58.9322 21.055 57.9604C21.055 56.9735 21.8528 56.1761 22.8397 56.1761H39.9617C40.9486 56.1761 41.7464 56.974 41.7464 57.9604C41.7464 58.9327 40.9486 59.7447 39.9617 59.7447H22.8397ZM14.0748 77.2883C13.0893 77.2883 12.29 76.4904 12.29 75.5035C12.29 74.5313 13.0893 73.7192 14.0748 73.7192H39.9617C40.9486 73.7192 41.7464 74.5317 41.7464 75.5035C41.7464 76.4904 40.9486 77.2883 39.9617 77.2883H14.0748ZM22.8397 94.8456C21.8528 94.8456 21.055 94.0477 21.055 93.0608C21.055 92.0739 21.8528 91.2761 22.8397 91.2761H39.9617C40.9486 91.2761 41.7464 92.0739 41.7464 93.0608C41.7464 94.0477 40.9486 94.8456 39.9617 94.8456H22.8397ZM14.0748 112.403C13.0893 112.403 12.29 111.59 12.29 110.619C12.29 109.632 13.0893 108.834 14.0748 108.834H39.9617C40.9486 108.834 41.7464 109.632 41.7464 110.619C41.7464 111.591 40.9486 112.403 39.9617 112.403H14.0748ZM22.8397 129.945C21.8528 129.945 21.055 129.148 21.055 128.161C21.055 127.189 21.8528 126.376 22.8397 126.376H39.9617C40.9486 126.376 41.7464 127.189 41.7464 128.161C41.7464 129.148 40.9486 129.945 39.9617 129.945H22.8397ZM191.941 43.2329C178.026 45.0905 165.14 45.1481 153.547 43.015C141.75 40.8389 131.275 36.3695 122.423 29.2012C111.888 36.05 100.745 40.6645 89.0055 43.0004C77.5001 45.2932 65.4123 45.409 52.731 43.2901L52.7159 55.885C52.6728 98.9369 52.6431 119.903 58.0555 135.474C63.1776 150.129 73.3345 160.358 93.1554 180.295C96.783 183.937 100.729 187.913 105.026 192.281H140.139C145.609 186.593 150.413 181.688 154.736 177.277C173.121 158.516 182.525 148.924 187.225 135.343C192.174 121.021 192.115 101.824 192 62.5735L191.941 43.2329Z" fill="#CCCCCC"/>
<path fill-rule="evenodd" clip-rule="evenodd" d="M181.5 17.0156C170.014 17.0156 160.703 26.327 160.703 37.8125C160.703 49.298 170.014 58.6094 181.5 58.6094C192.986 58.6094 202.297 49.298 202.297 37.8125C202.297 26.327 192.986 17.0156 181.5 17.0156ZM190.514 34.2959C190.68 34.1062 190.807 33.8852 190.886 33.6459C190.965 33.4066 190.996 33.1538 190.976 32.9025C190.957 32.6512 190.887 32.4064 190.771 32.1825C190.655 31.9585 190.496 31.7601 190.302 31.5987C190.108 31.4373 189.884 31.3162 189.643 31.2427C189.402 31.1692 189.149 31.1446 188.898 31.1704C188.647 31.1962 188.404 31.272 188.183 31.3931C187.962 31.5143 187.767 31.6785 187.611 31.8759L179.481 41.6297L175.274 37.4211C174.918 37.0767 174.44 36.8862 173.944 36.8905C173.449 36.8948 172.974 37.0936 172.624 37.4442C172.273 37.7947 172.074 38.2689 172.07 38.7646C172.066 39.2603 172.256 39.7379 172.601 40.0945L178.273 45.7664C178.458 45.952 178.681 46.0969 178.926 46.1919C179.171 46.2868 179.433 46.3297 179.695 46.3178C179.957 46.3058 180.214 46.2394 180.45 46.1226C180.685 46.0059 180.893 45.8414 181.061 45.6397L190.514 34.2959Z" fill="#77A1EA"/>
</svg>
