<svg width="168" height="168" viewBox="0 0 168 168" fill="none" xmlns="http://www.w3.org/2000/svg">
<path d="M155.697 47.0368C154.231 45.4958 152.728 43.9172 152.126 42.4514C151.525 40.9855 151.525 39.0687 151.487 36.9263C151.45 33.4308 151.375 29.4091 148.706 26.7405C146.037 24.072 142.016 23.9968 138.52 23.9592C136.378 23.9216 134.348 23.884 132.995 23.3202C131.642 22.7565 129.951 21.2154 128.41 19.7496C125.929 17.3441 123.073 14.6379 119.464 14.6379C115.856 14.6379 113 17.3441 110.519 19.7496C108.978 21.2154 107.399 22.7189 105.934 23.3202C104.468 23.9216 102.551 23.9216 100.408 23.9592C96.913 23.9968 92.8913 24.072 90.2227 26.7405C87.5541 29.4091 87.4789 33.4308 87.4414 36.9263C87.4038 39.0687 87.3662 41.0983 86.8024 42.4514C86.2386 43.8045 84.6976 45.4958 83.2318 47.0368C80.8263 49.5175 78.1201 52.374 78.1201 55.9822C78.1201 59.5905 80.8263 62.447 83.2318 64.9276C84.6976 66.4686 86.201 68.0472 86.8024 69.5131C87.4038 70.9789 87.4038 72.8958 87.4414 75.0382C87.4789 78.5337 87.5541 82.5553 90.2227 85.2239C92.8913 87.8925 96.913 87.9677 100.408 88.0053C102.551 88.0428 104.58 88.0804 105.934 88.6442C107.287 89.208 108.978 90.749 110.519 92.2149C113 94.6203 115.856 97.3265 119.464 97.3265C123.073 97.3265 125.929 94.6203 128.41 92.2149C129.951 90.749 131.529 89.2456 132.995 88.6442C134.461 88.0428 136.378 88.0428 138.52 88.0053C142.016 87.9677 146.037 87.8925 148.706 85.2239C151.375 82.5553 151.45 78.5337 151.487 75.0382C151.525 72.8958 151.563 70.8662 152.126 69.5131C152.69 68.16 154.231 66.4686 155.697 64.9276C158.103 62.447 160.809 59.5905 160.809 55.9822C160.809 52.374 158.103 49.5175 155.697 47.0368ZM152.465 61.808C150.698 63.6497 148.894 65.529 147.954 67.7841C147.015 70.0393 147.015 72.4824 146.977 74.963C146.94 77.4437 146.902 80.6385 145.511 82.0291C144.121 83.4198 141.227 83.4574 138.445 83.495C135.664 83.5326 133.409 83.5701 131.266 84.4722C129.124 85.3743 127.132 87.216 125.29 88.9825C123.448 90.749 121.268 92.8162 119.464 92.8162C117.66 92.8162 115.631 90.8618 113.639 88.9825C111.647 87.1032 109.918 85.4118 107.662 84.4722C105.407 83.5326 102.964 83.5326 100.484 83.495C98.0029 83.4574 94.8082 83.4198 93.4175 82.0291C92.0268 80.6385 91.9892 77.7444 91.9516 74.963C91.9141 72.1817 91.8765 69.9265 90.9744 67.7841C90.0724 65.6418 88.2307 63.6497 86.4641 61.808C84.6976 59.9663 82.6304 57.7863 82.6304 55.9822C82.6304 54.1781 84.5848 52.1485 86.4641 50.1564C88.3434 48.1644 90.0348 46.4355 90.9744 44.1803C91.9141 41.9252 91.9141 39.4821 91.9516 37.0014C91.9892 34.5208 92.0268 31.326 93.4175 29.9353C94.8082 28.5447 97.7023 28.5071 100.484 28.4695C103.265 28.4319 105.52 28.3943 107.662 27.4923C109.805 26.5902 111.797 24.7485 113.639 22.982C115.48 21.2154 117.66 19.1482 119.464 19.1482C121.268 19.1482 123.298 21.1027 125.29 22.982C127.282 24.8613 129.011 26.5526 131.266 27.4923C133.521 28.4319 135.965 28.4319 138.445 28.4695C140.926 28.5071 144.121 28.5447 145.511 29.9353C146.902 31.326 146.94 34.2201 146.977 37.0014C147.015 39.7828 147.052 42.0379 147.954 44.1803C148.856 46.3227 150.698 48.3147 152.465 50.1564C154.231 51.9981 156.298 54.1781 156.298 55.9822C156.298 57.7863 154.344 59.816 152.465 61.808Z" fill="#CCCCCC"/>
<path d="M127.92 67.2564C123.805 69.8213 117.632 72.8935 114.715 72.8935H106.259C104.122 70.395 102.533 67.4761 101.595 64.3251C100.416 60.7196 99.7887 56.9567 99.7345 53.1637H112.418V39.0709C112.471 38.5504 112.664 38.0539 112.976 37.6344C113.289 37.2149 113.71 36.8883 114.194 36.6893C115.279 39.5078 117.886 45.9482 120.155 48.9781C122.132 51.5423 124.839 53.4484 127.92 54.4461V51.4444C125.73 50.5668 123.824 49.1043 122.41 47.2166C119.76 43.6793 116.364 34.3781 116.336 34.2935C116.212 33.9685 115.972 33.7008 115.662 33.5421C115.352 33.3834 114.995 33.3449 114.659 33.4338C112.77 33.9694 109.599 35.6887 109.599 39.0709V50.3451H98.3253C97.9515 50.3451 97.593 50.4936 97.3288 50.7579C97.0645 51.0222 96.916 51.3807 96.916 51.7544C96.8061 56.3523 97.4732 60.9358 98.889 65.3116C101.553 72.9217 104.667 75.3739 104.808 75.4866C105.054 75.6775 105.356 75.7816 105.668 75.7825H114.715C118.14 75.7825 123.946 72.964 127.92 70.6669V67.2564Z" fill="#77A1EA"/>
<path d="M142.013 74.3028H132.148C131.774 74.3028 131.416 74.1543 131.151 73.89C130.887 73.6257 130.739 73.2673 130.739 72.8935V50.3451C130.739 49.9714 130.887 49.6129 131.151 49.3486C131.416 49.0843 131.774 48.9359 132.148 48.9359H142.013V74.3028ZM133.557 71.4842H139.194V51.7544H133.557V71.4842Z" fill="#77A1EA"/>
<path fill-rule="evenodd" clip-rule="evenodd" d="M146.403 0C136.356 0 128.212 8.14482 128.212 18.1915C128.212 28.2381 136.356 36.383 146.403 36.383C156.45 36.383 164.595 28.2381 164.595 18.1915C164.595 8.14482 156.45 0 146.403 0ZM154.288 15.1155C154.433 14.9495 154.544 14.7562 154.613 14.5469C154.683 14.3375 154.71 14.1165 154.692 13.8966C154.675 13.6768 154.614 13.4626 154.512 13.2668C154.411 13.0709 154.272 12.8973 154.102 12.7561C153.933 12.6149 153.737 12.5091 153.526 12.4447C153.315 12.3804 153.093 12.3589 152.874 12.3815C152.655 12.4041 152.442 12.4703 152.249 12.5763C152.055 12.6823 151.885 12.8259 151.748 12.9986L144.637 21.5305L140.957 17.8492C140.645 17.5479 140.228 17.3812 139.794 17.385C139.36 17.3888 138.946 17.5627 138.639 17.8693C138.332 18.1759 138.158 18.5907 138.155 19.0243C138.151 19.4579 138.318 19.8757 138.619 20.1876L143.58 25.1489C143.743 25.3113 143.937 25.4381 144.151 25.5211C144.366 25.6041 144.595 25.6416 144.824 25.6312C145.054 25.6208 145.278 25.5627 145.484 25.4606C145.69 25.3584 145.872 25.2146 146.019 25.0381L154.288 15.1155Z" fill="#77A1EA"/>
<path d="M84.6775 83.3986C70.0189 99.4523 45.1216 100.583 29.0678 85.9247C13.0141 71.266 11.8832 46.3688 26.5418 30.315C41.2004 14.2613 66.0977 13.1304 82.1514 27.789" stroke="#77A1EA" stroke-width="4" stroke-linecap="round"/>
<path d="M59.1085 53.0664V41.4034H71.3546V35.572H59.1085V29.7405H52.9855V35.572H40.7393V58.8979H52.9855V70.5608H40.7393V76.3923H52.9855V82.2238H59.1085V76.3923H71.3546V53.0664H59.1085ZM52.9855 53.0664H46.8624V41.4034H52.9855V53.0664ZM65.2316 70.5608H59.1085V58.8979H65.2316V70.5608Z" fill="#CCCCCC"/>
<line x1="20.3713" y1="143.704" x2="33.9911" y2="143.704" stroke="#77A1EA" stroke-width="3" stroke-linecap="round"/>
<path d="M41.1768 137.769V117.213M84.9129 131.646H101.97L104.594 129.022V127.71M41.1768 117.213V106.716H19.3087V144.767V152.639H41.1768V147.391L94.5348 161.824L155.328 134.27C155.328 134.27 156.764 130.319 156.64 127.71C156.54 125.599 155.328 122.461 155.328 122.461C155.328 122.461 153.114 118.206 150.517 117.213C148.443 116.42 144.831 117.213 144.831 117.213L117.715 125.085L104.594 127.71M41.1768 117.213L67.8558 108.028L100.658 115.901C100.658 115.901 103.622 117.893 104.594 119.837C105.969 122.587 104.594 127.71 104.594 127.71" stroke="#CCCCCC" stroke-width="3" stroke-linecap="round" stroke-linejoin="round"/>
<circle cx="29.368" cy="119.837" r="3.74833" stroke="#77A1EA" stroke-width="3"/>
<path d="M152.704 124.211L128.649 135.145L94.9722 150.89L45.1134 138.643" stroke="#77A1EA" stroke-width="3"/>
</svg>
